# xmcd
# 
# Track frame offsets:
#     183
#     9253
#     28198
#     43413
#     81423
#     94345
#     117878
#     137643
#     154093
#     173280
#     179918
#     196688
#     212063
#     226015
#     238848
#     253360
#     275985
#     291990
#     305985
#     313408
#     325675
# 
# Disc length: 4485
# 
# Revision: 5
# Processed by: cddbd v1.5.2PL0 Copyright (c) Steve Scherf et al.
# Submitted via: fre:ac v1.0.17
# 
DISCID=3f118315
DTITLE=JATP - Esquire Jazz Concert - Vol. 035 - Esquire Jazz Concert
DYEAR=1944
DGENRE=Jazz
TTITLE0=Esquire Bounce
TTITLE1=Basin Street Blues
TTITLE2=Sweet Lorraine
TTITLE3=I Got Rhythm
TTITLE4=The Blues
TTITLE5=Esquire Blues
TTITLE6=Mop Mop
TTITLE7=Do Nothing Till You Hear From Me
TTITLE8=Billie's Bounce
TTITLE9=I'll Get By
TTITLE10=I Gotta Right To Sing the Blues
TTITLE11=Tea For Two
TTITLE12=My Ideal
TTITLE13=Buck Jumpin'
TTITLE14=Stompin' At The Savoy
TTITLE15=For Bass Only
TTITLE16=Back O' Town Blues
TTITLE17=I've Got a Feeling I'm Falling
TTITLE18=Honeysuckle Rose
TTITLE19=Squeeze Me
TTITLE20=Muskrat Ramble
EXTD=YEAR: 1944
EXTT0=
EXTT1=
EXTT2=
EXTT3=
EXTT4=
EXTT5=
EXTT6=
EXTT7=
EXTT8=
EXTT9=
EXTT10=
EXTT11=
EXTT12=
EXTT13=
EXTT14=
EXTT15=
EXTT16=
EXTT17=
EXTT18=
EXTT19=
EXTT20=
PLAYORDER=
